<?xml version="1.0" standalone="no"?>
<!DOCTYPE svg PUBLIC "-//W3C//DTD SVG 20010904//EN"
 "http://www.w3.org/TR/2001/REC-SVG-20010904/DTD/svg10.dtd">
<svg version="1.0" xmlns="http://www.w3.org/2000/svg"
 width="1563.000000pt" height="1563.000000pt" viewBox="0 0 1563.000000 1563.000000"
 preserveAspectRatio="xMidYMid meet">

<g transform="translate(0.000000,1563.000000) scale(0.100000,-0.100000)"
fill="#000000" stroke="none">
<path d="M0 7815 l0 -7815 7815 0 7815 0 0 7815 0 7815 -7815 0 -7815 0 0
-7815z m6651 4315 c111 -21 235 -102 300 -196 16 -24 42 -74 56 -111 35 -91
37 -228 4 -317 -108 -299 -453 -418 -717 -248 -254 164 -291 531 -75 742 116
113 271 160 432 130z m2499 0 c75 -14 167 -61 232 -120 43 -38 68 -72 98 -133
209 -426 -230 -855 -655 -640 -66 34 -165 135 -198 203 -120 247 -23 535 220
651 98 47 196 59 303 39z m445 -1725 c107 -24 168 -168 114 -269 -65 -121
-389 -456 -580 -599 -267 -199 -549 -338 -838 -412 -321 -82 -713 -77 -1026
13 -105 30 -305 107 -389 149 -327 165 -694 470 -911 758 -96 127 -106 173
-57 266 36 69 84 99 162 99 78 0 113 -23 202 -131 164 -202 410 -421 620 -551
740 -460 1552 -339 2242 332 70 69 162 167 203 218 82 102 107 122 161 132 37
8 43 7 97 -5z m-4230 -540 c101 -22 164 -155 121 -256 -34 -81 -55 -91 -591
-285 -204 -73 -190 -62 -115 -91 218 -84 3016 -1113 3025 -1113 7 0 617 223
1356 496 739 272 1431 527 1537 567 106 39 189 74 185 77 -5 4 -152 60 -328
125 -176 65 -331 123 -345 130 -64 33 -104 107 -98 181 9 101 88 176 187 176
34 0 137 -33 384 -123 l337 -124 -2 -369 -3 -368 -465 -172 c-256 -94 -912
-336 -1457 -536 -749 -275 -992 -368 -988 -379 4 -11 730 -1177 740 -1189 1
-2 362 130 801 292 l799 295 3 685 c2 641 3 685 20 690 48 15 194 38 292 45
294 21 502 -38 581 -165 45 -74 52 -116 56 -391 l5 -263 373 0 373 0 31 -74
c48 -116 63 -196 59 -311 -8 -176 -67 -281 -186 -325 -48 -18 -78 -20 -352
-20 l-300 0 0 -438 c0 -502 3 -530 62 -597 65 -73 120 -89 313 -88 127 0 176
4 238 20 l79 21 30 -42 c106 -143 124 -322 49 -482 -97 -208 -330 -295 -751
-281 -232 7 -409 48 -558 128 -221 118 -325 265 -393 559 -9 38 -15 189 -18
486 l-6 431 -820 -303 c-451 -167 -833 -303 -849 -304 -49 0 -108 23 -140 55
-17 17 -166 248 -331 513 l-300 482 -3 -821 c-1 -451 -1 -1186 0 -1633 l3
-812 170 62 c94 34 770 283 1504 553 733 270 1335 491 1337 491 2 0 4 -92 4
-204 0 -185 -2 -204 -17 -211 -10 -3 -725 -267 -1590 -586 -959 -353 -1586
-579 -1607 -579 -35 0 -3706 1346 -3756 1377 -30 19 -57 49 -73 83 -9 19 -13
302 -17 1153 l-5 1128 -427 159 c-236 88 -439 167 -453 177 -34 24 -75 109
-75 154 0 20 12 60 28 90 15 30 231 378 479 775 248 396 460 739 472 761 11
23 33 50 48 61 28 19 1206 456 1253 465 26 4 35 3 85 -8z"/>
<path d="M3862 8427 c-205 -327 -372 -598 -372 -603 0 -5 44 -26 98 -45 53
-20 789 -291 1636 -603 846 -312 1540 -566 1541 -564 10 10 745 1191 745 1196
0 5 -1839 686 -3266 1209 -5 2 -177 -264 -382 -590z"/>
<path d="M7305 6747 c-165 -264 -314 -495 -331 -512 -31 -31 -90 -55 -138 -55
-15 0 -428 148 -919 330 -491 181 -1043 385 -1227 452 l-335 124 -3 -960 c-1
-527 0 -961 2 -963 2 -2 734 -273 1627 -602 l1624 -597 3 819 c1 450 1 1185 0
1632 l-3 813 -300 -481z"/>
</g>
</svg>
